<svg xmlns="http://www.w3.org/2000/svg" xmlns:xlink="http://www.w3.org/1999/xlink" viewBox="0 0 1624.38 1209.43"><defs><style>.cls-1{fill:url(#linear-gradient);}.cls-2{fill:#fff;}</style><linearGradient id="linear-gradient" x1="812.19" x2="812.19" y2="1209.43" gradientUnits="userSpaceOnUse"><stop offset="0" stop-color="#f26952"/><stop offset="1" stop-color="#e83628"/></linearGradient></defs><title>inari-logo</title><g id="Layer_2" data-name="Layer 2"><g id="Layer_3" data-name="Layer 3"><path class="cls-1" d="M1520.77,1209.43a808.48,808.48,0,0,0,103.61-397.24C1624.38,363.63,1260.75,0,812.19,0S0,363.63,0,812.19a808.49,808.49,0,0,0,103.62,397.24Z"/><rect class="cls-2" x="231.45" y="687.68" width="24.56" height="309.77"/><rect class="cls-2" x="1370.89" y="687.68" width="24.56" height="309.77"/><polygon class="cls-2" points="616.56 687.68 616.56 966.59 366.75 687.68 363.17 687.68 354.8 687.68 338.61 687.68 338.61 997.45 363.17 997.45 363.17 720.51 611.01 997.45 616.56 997.45 622.42 997.45 641.12 997.45 641.12 687.68 616.56 687.68"/><polygon class="cls-2" points="995.72 997.08 1023.15 997.45 874.09 687.8 847.06 688.28 930.36 861.3 771.87 861.3 771.87 861.3 760.95 861.3 698.01 997.45 725.06 997.45 776.65 885.86 942.18 885.86 995.72 997.08"/><path class="cls-2" d="M1299.59,997.45l-64.84-118.34a98.8,98.8,0,0,0-36-190.83H1049.6v24.56h149.19a74.24,74.24,0,1,1,0,148.47H1049.6v24.55h160.84l61.14,111.59Z"/></g></g></svg>